<svg width="374" height="507" viewBox="0 0 374 507" fill="none" xmlns="http://www.w3.org/2000/svg">
<path d="M231.5 260C249 247.5 272.492 266.024 282.5 236C289.5 215 239.5 223 231.5 260Z" fill="#66C6A9"/>
<path d="M273 355.5C257.4 434.3 289.167 489.333 307 507H232.5C239 507 258.6 504.366 247.5 480.5C237.5 459 240.167 397 243.5 369.5C265.1 303.1 234.5 287 225.5 275.5C225.5 207.9 212.167 177.833 203 165.5C217.5 181 228 208.5 233 269C238.324 280.616 254.579 284.267 264.23 315.779C274.39 281.527 280.361 243.247 269.5 223.5C275.139 202.198 276.787 155.641 280.469 111.5C297 94 306.5 107.5 319 80C311 108.5 290.5 99 285.223 115.5C283.456 157.788 281.933 204.335 278.5 223.5C283.628 238.269 286.756 240.558 287.491 252C292 238.5 295.409 229.206 308 221C315.5 193.5 327.167 181.833 329 182.5C321.4 184.9 313.167 210.833 310 223.5C296.594 232.843 289.847 262.306 287.491 271C286.329 287.134 281.806 311.019 273 355.5Z" fill="url(#paint0_linear_506_177)"/>
<path d="M282.5 113C247.167 110.667 188.1 89.3 234.5 22.5C280.9 -44.3 285.833 55 282.5 113Z" fill="url(#paint1_linear_506_177)"/>
<path d="M222 208.999C197.833 204.999 135.81 144.891 201 162.999C228 170.499 233.5 161.333 222 208.999Z" fill="url(#paint2_linear_506_177)"/>
<path d="M277 164C254.5 158.5 233.992 170.524 244 140.5C251 119.5 276.5 125.501 277 164Z" fill="url(#paint3_linear_506_177)"/>
<path d="M320 193.405C337.5 180.905 360.992 199.429 371 169.405C378 148.405 328 156.405 320 193.405Z" fill="url(#paint4_linear_506_177)"/>
<path d="M311.5 92.5C327.356 104.366 357.136 115.888 359.407 73.0406C361.677 30.1934 318.5 71.5 311.5 92.5Z" fill="url(#paint5_linear_506_177)"/>
<defs>
<linearGradient id="paint0_linear_506_177" x1="164.5" y1="80" x2="164.5" y2="507" gradientUnits="userSpaceOnUse">
<stop stop-color="#FFB000"/>
<stop offset="1" stop-color="#66C6A9"/>
</linearGradient>
<linearGradient id="paint1_linear_506_177" x1="227.707" y1="0.232773" x2="227.707" y2="208.999" gradientUnits="userSpaceOnUse">
<stop stop-color="#FFB000"/>
<stop offset="1" stop-color="#66C6A9"/>
</linearGradient>
<linearGradient id="paint2_linear_506_177" x1="227.707" y1="0.232773" x2="227.707" y2="208.999" gradientUnits="userSpaceOnUse">
<stop stop-color="#FFB000"/>
<stop offset="1" stop-color="#66C6A9"/>
</linearGradient>
<linearGradient id="paint3_linear_506_177" x1="227.707" y1="0.232773" x2="227.707" y2="208.999" gradientUnits="userSpaceOnUse">
<stop stop-color="#FFB000"/>
<stop offset="1" stop-color="#66C6A9"/>
</linearGradient>
<linearGradient id="paint4_linear_506_177" x1="326" y1="103" x2="345.835" y2="193.405" gradientUnits="userSpaceOnUse">
<stop stop-color="#FFB000"/>
<stop offset="1" stop-color="#66C6A9"/>
</linearGradient>
<linearGradient id="paint5_linear_506_177" x1="317" y1="44" x2="336.5" y2="107" gradientUnits="userSpaceOnUse">
<stop stop-color="#FFB000"/>
<stop offset="1" stop-color="#66C6A9"/>
</linearGradient>
</defs>
</svg>
